<svg width="145" height="35" viewBox="0 0 145 35" fill="none" xmlns="http://www.w3.org/2000/svg">
<g id="Frame" clip-path="url(#clip0_140_15787)">
<g id="Group">
<path id="Vector" d="M34.02 14.1797H0V19.8497H34.02V14.1797Z" fill="#C9D644"/>
<path id="Vector_2" d="M19.8497 0H14.1797V34.02H19.8497V0Z" fill="#CED600"/>
<path id="Vector_3" d="M19.8497 0H14.1797V34.02H19.8497V0Z" fill="#CED600"/>
<path id="Vector_4" d="M27.0311 2.98547L2.97559 27.041L6.98484 31.0503L31.0404 6.99473L27.0311 2.98547Z" fill="#0C0B10"/>
<path id="Vector_5" d="M19.8497 0H14.1797V34.02H19.8497V0Z" fill="#C9D644"/>
<path id="Vector_6" d="M6.99266 2.98977L2.9834 6.99902L27.0389 31.0546L31.0482 27.0453L6.99266 2.98977Z" fill="#0C0B10"/>
<g id="Group_2">
<path id="Vector_7" d="M60.5798 23.3405L58.8298 19.2905H50.6698L48.9198 23.3405H46.0098L53.2598 6.48047H56.1898L63.4798 23.3405H60.5798ZM51.8398 16.5905L57.6598 16.5705L54.7498 9.83047L51.8398 16.5905Z" fill="black"/>
<path id="Vector_8" d="M75.7198 12.1303C76.5098 12.6903 77.1398 13.4603 77.6098 14.4403C78.0698 15.4203 78.3098 16.5103 78.3098 17.7203C78.3098 18.7703 78.0798 19.7603 77.6098 20.6703C77.1398 21.5803 76.5098 22.3103 75.7098 22.8503C74.9098 23.3903 74.0198 23.6603 73.0598 23.6603C71.8198 23.6603 70.7998 23.3203 69.9998 22.6303C69.1998 21.9403 68.6798 20.8703 68.4398 19.4303H68.0798L68.2898 27.5603H65.5898V11.4103H68.2898L68.0798 15.3103H68.4998C68.7798 14.0003 69.3198 13.0103 70.1098 12.3203C70.8998 11.6303 71.8799 11.2903 73.0499 11.2903C74.0399 11.2803 74.9298 11.5603 75.7198 12.1303ZM73.9398 20.5303C74.4698 20.2403 74.8898 19.8303 75.1898 19.3203C75.4899 18.8103 75.6398 18.2303 75.6398 17.5803C75.6398 16.5503 75.3098 15.7103 74.6498 15.0603C73.9898 14.4103 73.1498 14.0803 72.1199 14.0803C71.4699 14.0803 70.8798 14.2303 70.3498 14.5203C69.8198 14.8103 69.3898 15.2203 69.0698 15.7203C68.7498 16.2303 68.5998 16.7803 68.5998 17.3903C68.5998 18.0103 68.7498 18.5903 69.0598 19.1503C69.3698 19.7103 69.7898 20.1503 70.3298 20.4803C70.8698 20.8103 71.4598 20.9803 72.1098 20.9803C72.7998 20.9803 73.4099 20.8303 73.9398 20.5303Z" fill="black"/>
<path id="Vector_9" d="M90.5394 12.1303C91.3294 12.6903 91.9594 13.4603 92.4294 14.4403C92.8894 15.4203 93.1294 16.5103 93.1294 17.7203C93.1294 18.7703 92.8994 19.7603 92.4294 20.6703C91.9694 21.5803 91.3294 22.3103 90.5294 22.8503C89.7294 23.3903 88.8394 23.6603 87.8694 23.6603C86.6294 23.6603 85.6094 23.3203 84.8094 22.6303C84.0094 21.9403 83.4894 20.8703 83.2494 19.4303H82.8894L83.0994 27.5603H80.3994V11.4103H83.0994L82.8894 15.3103H83.3094C83.5894 14.0003 84.1294 13.0103 84.9194 12.3203C85.7094 11.6303 86.6894 11.2903 87.8594 11.2903C88.8494 11.2803 89.7394 11.5603 90.5394 12.1303ZM88.7594 20.5303C89.2894 20.2403 89.7094 19.8303 90.0094 19.3203C90.3094 18.8103 90.4594 18.2303 90.4594 17.5803C90.4594 16.5503 90.1294 15.7103 89.4694 15.0603C88.8094 14.4103 87.9694 14.0803 86.9394 14.0803C86.2894 14.0803 85.6994 14.2303 85.1694 14.5203C84.6394 14.8103 84.2094 15.2203 83.8994 15.7203C83.5794 16.2303 83.4294 16.7803 83.4294 17.3903C83.4294 18.0103 83.5794 18.5903 83.8894 19.1503C84.1994 19.7103 84.6194 20.1503 85.1694 20.4803C85.7094 20.8103 86.2994 20.9803 86.9494 20.9803C87.6194 20.9803 88.2194 20.8303 88.7594 20.5303Z" fill="black"/>
<path id="Vector_10" d="M99.4098 19.6908C99.5398 20.1308 99.8398 20.4008 100.31 20.5208C100.78 20.6408 101.7 20.7008 103.06 20.7008V23.3308C100.98 23.3308 99.4998 23.1608 98.6098 22.8208C97.7198 22.4808 97.1698 21.9208 96.9298 21.1208C96.6998 20.3308 96.5798 19.0008 96.5798 17.1508V14.0908H94.2598V11.3908H96.5798V7.30078H99.2098V11.3908H103.02V14.0908H99.2098V17.1508C99.2198 18.4108 99.2898 19.2608 99.4098 19.6908Z" fill="black"/>
<path id="Vector_11" d="M108.779 20.29C109.389 20.79 110.159 21.04 111.089 21.04C112.579 21.04 113.759 20.46 114.629 19.31L116.419 20.53C115.869 21.57 115.129 22.35 114.189 22.87C113.249 23.39 112.219 23.65 111.089 23.65C109.979 23.65 108.949 23.37 108.009 22.82C107.069 22.27 106.319 21.51 105.769 20.57C105.209 19.62 104.939 18.59 104.939 17.46C104.939 16.33 105.219 15.3 105.769 14.36C106.329 13.42 107.069 12.67 108.009 12.12C108.949 11.56 109.979 11.29 111.089 11.29C112.269 11.29 113.309 11.58 114.209 12.18C115.109 12.77 115.799 13.6 116.269 14.66C116.749 15.72 116.959 16.93 116.919 18.29H107.629C107.779 19.12 108.159 19.79 108.779 20.29ZM108.859 14.6C108.249 15.1 107.839 15.73 107.649 16.51H114.389C114.219 15.68 113.829 15.03 113.219 14.56C112.609 14.09 111.899 13.85 111.079 13.85C110.209 13.85 109.469 14.1 108.859 14.6Z" fill="black"/>
<path id="Vector_12" d="M124.55 23.65C123.44 23.65 122.43 23.37 121.53 22.82C120.62 22.27 119.91 21.51 119.4 20.57C118.89 19.62 118.63 18.59 118.63 17.46C118.63 16.33 118.89 15.3 119.4 14.35C119.91 13.4 120.62 12.65 121.53 12.11C122.44 11.56 123.44 11.29 124.55 11.29C125.93 11.29 127.11 11.58 128.09 12.15C129.07 12.73 129.84 13.56 130.39 14.64L128.3 16.07C127.77 15.28 127.23 14.74 126.69 14.44C126.15 14.14 125.51 13.99 124.76 13.99C123.75 13.99 122.92 14.31 122.28 14.96C121.64 15.61 121.32 16.44 121.32 17.47C121.32 18.55 121.64 19.4 122.27 20.03C122.9 20.66 123.73 20.97 124.76 20.97C126.15 20.97 127.27 20.35 128.11 19.12L130.24 20.55C129.13 22.61 127.23 23.65 124.55 23.65Z" fill="black"/>
<path id="Vector_13" d="M143.3 12.6505C144.14 13.6905 144.55 15.3705 144.55 17.6905V23.3405H141.92V17.6905C141.92 16.3605 141.67 15.3705 141.16 14.7405C140.65 14.1105 139.86 13.7905 138.78 13.7905C137.67 13.7905 136.79 14.1705 136.15 14.9205C135.5 15.6705 135.18 16.7505 135.18 18.1505V23.3305H132.48V11.4105H132.46V6.48047H135.16V11.4105H135.18L134.59 15.3105H134.99C135.16 14.1905 135.44 13.3205 135.83 12.7105C136.22 12.1005 136.72 11.6805 137.32 11.4505C137.92 11.2205 138.66 11.1005 139.54 11.1005C141.21 11.0905 142.47 11.6105 143.3 12.6505Z" fill="black"/>
</g>
</g>
</g>
<defs>
<clipPath id="clip0_140_15787">
<rect width="144.55" height="34.02" fill="white"/>
</clipPath>
</defs>
</svg>
